<svg xmlns="http://www.w3.org/2000/svg" width="900" height="560" viewBox="0 0 900 560">
  <defs>
    <style>
      text { font-smoothing: antialiased; }
    </style>
  </defs>
  <rect width="900" height="560" fill="#0d0d0f"/>
  <!-- header -->
  <rect width="900" height="50" fill="#141416" stroke="#2a2a2f" stroke-width="1"/>
  <text x="20" y="32" font-family="Georgia,serif" font-size="18" font-weight="bold" fill="#e8d5a3">Focus</text>
  <text x="72" y="32" font-family="Georgia,serif" font-size="18" fill="#9b9893">Board</text>
  <text x="880" y="32" font-family="monospace" font-size="11" fill="#5a5855" text-anchor="end">Fri, Mar 06</text>

  <!-- sidebar -->
  <rect x="0" y="50" width="180" height="510" fill="#141416" stroke="#2a2a2f" stroke-width="1"/>
  <text x="38" y="92" font-family="Georgia,serif" font-size="13" fill="#9b9893" font-weight="normal">Tasks</text>
  <text x="38" y="136" font-family="Georgia,serif" font-size="13" fill="#9b9893" font-weight="normal">Timetable</text>
  <text x="38" y="180" font-family="Georgia,serif" font-size="13" fill="#9b9893" font-weight="normal">Notes</text>
  <text x="38" y="224" font-family="Georgia,serif" font-size="13" fill="#9b9893" font-weight="normal">Focus</text>
  <rect x="8" y="246" width="164" height="34" rx="8" fill="#1c1c1f" stroke="#3a3a40" stroke-width="1"/>
  <text x="38" y="268" font-family="Georgia,serif" font-size="13" fill="#e8d5a3" font-weight="bold">History</text>
  <text x="20" y="546" font-family="monospace" font-size="10" fill="#5a5855">Fri Mar 06</text>
  <rect x="180" y="50" width="720" height="510" fill="#0d0d0f"/>

  <text x="200" y="92" font-family="Georgia,serif" font-size="20" font-weight="bold" fill="#f0ede8">History</text>

  <!-- day label 1 -->
  <text x="200" y="118" font-family="monospace" font-size="10" fill="#5a5855" letter-spacing="1">FRIDAY, MARCH 6</text>
  <line x1="200" y1="122" x2="860" y2="122" stroke="#2a2a2f" stroke-width="1"/>
  <rect x="200" y="132" width="660" height="42" rx="8" fill="#1c1c1f" stroke="#2a2a2f" stroke-width="1"/>
  <circle cx="222" cy="153" r="14" fill="#7bc4a022"/>
  <text x="222" y="158" font-family="monospace" font-size="12" fill="#7bc4a0" text-anchor="middle">✓</text>
  <text x="248" y="149" font-family="Georgia,serif" font-size="13" fill="#f0ede8">Completed: Review chapter 4 notes</text>
  <text x="248" y="164" font-family="monospace" font-size="10" fill="#5a5855">09:42 AM</text>
  <rect x="794" y="143" width="46" height="20" rx="10" fill="#7bc4a022"/>
  <text x="817" y="157" font-family="monospace" font-size="10" fill="#7bc4a0" text-anchor="middle">task</text>
  <rect x="200" y="184" width="660" height="42" rx="8" fill="#1c1c1f" stroke="#2a2a2f" stroke-width="1"/>
  <circle cx="222" cy="205" r="14" fill="#c9a96e22"/>
  <text x="222" y="210" font-family="monospace" font-size="12" fill="#c9a96e" text-anchor="middle">◷</text>
  <text x="248" y="201" font-family="Georgia,serif" font-size="13" fill="#f0ede8">Focus session: 25 min</text>
  <text x="248" y="216" font-family="monospace" font-size="10" fill="#5a5855">09:10 AM</text>
  <rect x="794" y="195" width="46" height="20" rx="10" fill="#c9a96e22"/>
  <text x="817" y="209" font-family="monospace" font-size="10" fill="#c9a96e" text-anchor="middle">timer</text>
  <rect x="200" y="236" width="660" height="42" rx="8" fill="#1c1c1f" stroke="#2a2a2f" stroke-width="1"/>
  <circle cx="222" cy="257" r="14" fill="#7bc4a022"/>
  <text x="222" y="262" font-family="monospace" font-size="12" fill="#7bc4a0" text-anchor="middle">✓</text>
  <text x="248" y="253" font-family="Georgia,serif" font-size="13" fill="#f0ede8">Completed: Morning standup prep</text>
  <text x="248" y="268" font-family="monospace" font-size="10" fill="#5a5855">08:55 AM</text>
  <rect x="794" y="247" width="46" height="20" rx="10" fill="#7bc4a022"/>
  <text x="817" y="261" font-family="monospace" font-size="10" fill="#7bc4a0" text-anchor="middle">task</text>
  <rect x="200" y="288" width="660" height="42" rx="8" fill="#1c1c1f" stroke="#2a2a2f" stroke-width="1"/>
  <circle cx="222" cy="309" r="14" fill="#c9a96e22"/>
  <text x="222" y="314" font-family="monospace" font-size="12" fill="#c9a96e" text-anchor="middle">◷</text>
  <text x="248" y="305" font-family="Georgia,serif" font-size="13" fill="#f0ede8">Focus session: 25 min</text>
  <text x="248" y="320" font-family="monospace" font-size="10" fill="#5a5855">08:20 AM</text>
  <rect x="794" y="299" width="46" height="20" rx="10" fill="#c9a96e22"/>
  <text x="817" y="313" font-family="monospace" font-size="10" fill="#c9a96e" text-anchor="middle">timer</text>
  <rect x="200" y="340" width="660" height="42" rx="8" fill="#1c1c1f" stroke="#2a2a2f" stroke-width="1"/>
  <circle cx="222" cy="361" r="14" fill="#7bc4a022"/>
  <text x="222" y="366" font-family="monospace" font-size="12" fill="#7bc4a0" text-anchor="middle">✓</text>
  <text x="248" y="357" font-family="Georgia,serif" font-size="13" fill="#f0ede8">Completed: Read 30 minutes</text>
  <text x="248" y="372" font-family="monospace" font-size="10" fill="#5a5855">07:58 AM</text>
  <rect x="794" y="351" width="46" height="20" rx="10" fill="#7bc4a022"/>
  <text x="817" y="365" font-family="monospace" font-size="10" fill="#7bc4a0" text-anchor="middle">task</text>
  <text x="200" y="416" font-family="monospace" font-size="10" fill="#5a5855" letter-spacing="1">THURSDAY, MARCH 5</text>
  <line x1="200" y1="420" x2="860" y2="420" stroke="#2a2a2f" stroke-width="1"/>
  <rect x="200" y="430" width="660" height="42" rx="8" fill="#1c1c1f" stroke="#2a2a2f" stroke-width="1"/>
  <circle cx="222" cy="451" r="14" fill="#c9a96e22"/>
  <text x="222" y="456" font-family="monospace" font-size="12" fill="#c9a96e" text-anchor="middle">◷</text>
  <text x="248" y="447" font-family="Georgia,serif" font-size="13" fill="#f0ede8">Focus session: 25 min</text>
  <text x="248" y="462" font-family="monospace" font-size="10" fill="#5a5855">10:30 PM</text>
  <rect x="794" y="441" width="46" height="20" rx="10" fill="#c9a96e22"/>
  <text x="817" y="455" font-family="monospace" font-size="10" fill="#c9a96e" text-anchor="middle">timer</text>
  <rect x="200" y="482" width="660" height="42" rx="8" fill="#1c1c1f" stroke="#2a2a2f" stroke-width="1"/>
  <circle cx="222" cy="503" r="14" fill="#7bc4a022"/>
  <text x="222" y="508" font-family="monospace" font-size="12" fill="#7bc4a0" text-anchor="middle">✓</text>
  <text x="248" y="499" font-family="Georgia,serif" font-size="13" fill="#f0ede8">Completed: Submit project proposal</text>
  <text x="248" y="514" font-family="monospace" font-size="10" fill="#5a5855">08:15 PM</text>
  <rect x="794" y="493" width="46" height="20" rx="10" fill="#7bc4a022"/>
  <text x="817" y="507" font-family="monospace" font-size="10" fill="#7bc4a0" text-anchor="middle">task</text>

</svg>