<svg xmlns="http://www.w3.org/2000/svg" width="900" height="560" viewBox="0 0 900 560">
  <defs>
    <style>
      text { font-smoothing: antialiased; }
    </style>
  </defs>
  <rect width="900" height="560" fill="#0d0d0f"/>
  <!-- header -->
  <rect width="900" height="50" fill="#141416" stroke="#2a2a2f" stroke-width="1"/>
  <text x="20" y="32" font-family="Georgia,serif" font-size="18" font-weight="bold" fill="#e8d5a3">Focus</text>
  <text x="72" y="32" font-family="Georgia,serif" font-size="18" fill="#9b9893">Board</text>
  <text x="880" y="32" font-family="monospace" font-size="11" fill="#5a5855" text-anchor="end">Fri, Mar 06</text>

  <!-- sidebar -->
  <rect x="0" y="50" width="180" height="510" fill="#141416" stroke="#2a2a2f" stroke-width="1"/>
  <text x="38" y="92" font-family="Georgia,serif" font-size="13" fill="#9b9893" font-weight="normal">Tasks</text>
  <text x="38" y="136" font-family="Georgia,serif" font-size="13" fill="#9b9893" font-weight="normal">Timetable</text>
  <rect x="8" y="158" width="164" height="34" rx="8" fill="#1c1c1f" stroke="#3a3a40" stroke-width="1"/>
  <text x="38" y="180" font-family="Georgia,serif" font-size="13" fill="#e8d5a3" font-weight="bold">Notes</text>
  <text x="38" y="224" font-family="Georgia,serif" font-size="13" fill="#9b9893" font-weight="normal">Focus</text>
  <text x="38" y="268" font-family="Georgia,serif" font-size="13" fill="#9b9893" font-weight="normal">History</text>
  <text x="20" y="546" font-family="monospace" font-size="10" fill="#5a5855">Fri Mar 06</text>
  <rect x="180" y="50" width="720" height="510" fill="#0d0d0f"/>

  <text x="200" y="92" font-family="Georgia,serif" font-size="20" font-weight="bold" fill="#f0ede8">Notes</text>
  <!-- input area -->
  <rect x="200" y="104" width="560" height="50" rx="8" fill="#1c1c1f" stroke="#2a2a2f" stroke-width="1"/>
  <text x="214" y="134" font-family="monospace" font-size="12" fill="#5a5855">Jot something down… (Ctrl+Enter to save)</text>
  <rect x="772" y="104" width="88" height="50" rx="8" fill="#e8d5a3"/>
  <text x="816" y="134" font-family="Georgia,serif" font-size="13" font-weight="bold" fill="#0d0d0f" text-anchor="middle">Add</text>
  <rect x="200" y="172" width="212" height="96" rx="10" fill="#e8d5a308" stroke="#c9a96e" stroke-width="1"/>
  <text x="214" y="194" font-family="monospace" font-size="11" fill="#f0ede8">Key formula: F = ma</text>
  <text x="214" y="212" font-family="monospace" font-size="11" fill="#f0ede8">Review for exam Thursday</text>
  <text x="214" y="256" font-family="monospace" font-size="10" fill="#5a5855">Mar 5</text>
  <text x="398" y="256" font-family="monospace" font-size="10" fill="#c9a96e" text-anchor="end">★</text>
  <rect x="424" y="172" width="212" height="96" rx="10" fill="#1c1c1f" stroke="#3a3a40" stroke-width="1"/>
  <text x="438" y="194" font-family="monospace" font-size="11" fill="#f0ede8">Meeting agenda: Q2 roadmap</text>
  <text x="438" y="212" font-family="monospace" font-size="11" fill="#f0ede8">assign sprint tasks</text>
  <text x="438" y="256" font-family="monospace" font-size="10" fill="#5a5855">Mar 5</text>
  <rect x="648" y="172" width="212" height="96" rx="10" fill="#1c1c1f" stroke="#3a3a40" stroke-width="1"/>
  <text x="662" y="194" font-family="monospace" font-size="11" fill="#f0ede8">Book recommendation:</text>
  <text x="662" y="212" font-family="monospace" font-size="11" fill="#f0ede8">Atomic Habits</text>
  <text x="662" y="256" font-family="monospace" font-size="10" fill="#5a5855">Mar 4</text>
  <rect x="200" y="280" width="212" height="96" rx="10" fill="#1c1c1f" stroke="#3a3a40" stroke-width="1"/>
  <text x="214" y="302" font-family="monospace" font-size="11" fill="#f0ede8">Grocery: milk, eggs,</text>
  <text x="214" y="320" font-family="monospace" font-size="11" fill="#f0ede8">bread, coffee</text>
  <text x="214" y="364" font-family="monospace" font-size="10" fill="#5a5855">Mar 4</text>
  <rect x="424" y="280" width="212" height="96" rx="10" fill="#1c1c1f" stroke="#3a3a40" stroke-width="1"/>
  <text x="438" y="302" font-family="monospace" font-size="11" fill="#f0ede8">API endpoint for auth:</text>
  <text x="438" y="320" font-family="monospace" font-size="11" fill="#f0ede8">/v1/auth/token</text>
  <text x="438" y="364" font-family="monospace" font-size="10" fill="#5a5855">Mar 3</text>
  <rect x="648" y="280" width="212" height="96" rx="10" fill="#1c1c1f" stroke="#3a3a40" stroke-width="1"/>
  <text x="662" y="302" font-family="monospace" font-size="11" fill="#f0ede8">Ideas for project UI:</text>
  <text x="662" y="320" font-family="monospace" font-size="11" fill="#f0ede8">dark mode, minimal</text>
  <text x="662" y="364" font-family="monospace" font-size="10" fill="#5a5855">Mar 3</text>

</svg>