<svg xmlns="http://www.w3.org/2000/svg" width="900" height="560" viewBox="0 0 900 560">
  <defs>
    <style>
      text { font-smoothing: antialiased; }
    </style>
  </defs>
  <rect width="900" height="560" fill="#0d0d0f"/>
  <!-- header -->
  <rect width="900" height="50" fill="#141416" stroke="#2a2a2f" stroke-width="1"/>
  <text x="20" y="32" font-family="Georgia,serif" font-size="18" font-weight="bold" fill="#e8d5a3">Focus</text>
  <text x="72" y="32" font-family="Georgia,serif" font-size="18" fill="#9b9893">Board</text>
  <text x="880" y="32" font-family="monospace" font-size="11" fill="#5a5855" text-anchor="end">Fri, Mar 06</text>

  <!-- sidebar -->
  <rect x="0" y="50" width="180" height="510" fill="#141416" stroke="#2a2a2f" stroke-width="1"/>
  <text x="38" y="92" font-family="Georgia,serif" font-size="13" fill="#9b9893" font-weight="normal">Tasks</text>
  <rect x="8" y="114" width="164" height="34" rx="8" fill="#1c1c1f" stroke="#3a3a40" stroke-width="1"/>
  <text x="38" y="136" font-family="Georgia,serif" font-size="13" fill="#e8d5a3" font-weight="bold">Timetable</text>
  <text x="38" y="180" font-family="Georgia,serif" font-size="13" fill="#9b9893" font-weight="normal">Notes</text>
  <text x="38" y="224" font-family="Georgia,serif" font-size="13" fill="#9b9893" font-weight="normal">Focus</text>
  <text x="38" y="268" font-family="Georgia,serif" font-size="13" fill="#9b9893" font-weight="normal">History</text>
  <text x="20" y="546" font-family="monospace" font-size="10" fill="#5a5855">Fri Mar 06</text>
  <rect x="180" y="50" width="720" height="510" fill="#0d0d0f"/>

  <text x="200" y="92" font-family="Georgia,serif" font-size="20" font-weight="bold" fill="#f0ede8">Timetable</text>
  <rect x="760" y="72" width="100" height="26" rx="8" fill="#e8d5a3"/>
  <text x="810" y="89" font-family="Georgia,serif" font-size="12" font-weight="bold" fill="#0d0d0f" text-anchor="middle">+ Add Slot</text>
  <rect x="240" y="130" width="88" height="28" rx="6" fill="#1c1c1f"/>
  <text x="285" y="149" font-family="monospace" font-size="11" fill="#9b9893" font-weight="bold" text-anchor="middle">Mon</text>
  <rect x="330" y="130" width="88" height="28" rx="6" fill="#1c1c1f"/>
  <text x="375" y="149" font-family="monospace" font-size="11" fill="#9b9893" font-weight="bold" text-anchor="middle">Tue</text>
  <rect x="420" y="130" width="88" height="28" rx="6" fill="#1c1c1f"/>
  <text x="465" y="149" font-family="monospace" font-size="11" fill="#9b9893" font-weight="bold" text-anchor="middle">Wed</text>
  <rect x="510" y="130" width="88" height="28" rx="6" fill="#1c1c1f"/>
  <text x="555" y="149" font-family="monospace" font-size="11" fill="#9b9893" font-weight="bold" text-anchor="middle">Thu</text>
  <rect x="600" y="130" width="88" height="28" rx="6" fill="#1c1c1f"/>
  <text x="645" y="149" font-family="monospace" font-size="11" fill="#9b9893" font-weight="bold" text-anchor="middle">Fri</text>
  <rect x="690" y="130" width="88" height="28" rx="6" fill="#1c1c1f"/>
  <text x="735" y="149" font-family="monospace" font-size="11" fill="#9b9893" font-weight="bold" text-anchor="middle">Sat</text>
  <rect x="780" y="130" width="88" height="28" rx="6" fill="#1c1c1f"/>
  <text x="825" y="149" font-family="monospace" font-size="11" fill="#9b9893" font-weight="bold" text-anchor="middle">Sun</text>
  <text x="234" y="186" font-family="monospace" font-size="10" fill="#5a5855" text-anchor="end">8:00</text>
  <rect x="240" y="162" width="88" height="36" rx="5" fill="#141416" stroke="#2a2a2f" stroke-width="1"/>
  <rect x="330" y="162" width="88" height="36" rx="5" fill="#141416" stroke="#2a2a2f" stroke-width="1"/>
  <rect x="420" y="162" width="88" height="36" rx="5" fill="#141416" stroke="#2a2a2f" stroke-width="1"/>
  <rect x="510" y="162" width="88" height="36" rx="5" fill="#141416" stroke="#2a2a2f" stroke-width="1"/>
  <rect x="600" y="162" width="88" height="36" rx="5" fill="#141416" stroke="#2a2a2f" stroke-width="1"/>
  <rect x="690" y="162" width="88" height="36" rx="5" fill="#141416" stroke="#2a2a2f" stroke-width="1"/>
  <rect x="780" y="162" width="88" height="36" rx="5" fill="#141416" stroke="#2a2a2f" stroke-width="1"/>
  <text x="234" y="224" font-family="monospace" font-size="10" fill="#5a5855" text-anchor="end">9:00</text>
  <rect x="240" y="200" width="88" height="36" rx="5" fill="#141416" stroke="#2a2a2f" stroke-width="1"/>
  <rect x="330" y="200" width="88" height="36" rx="5" fill="#141416" stroke="#2a2a2f" stroke-width="1"/>
  <rect x="420" y="200" width="88" height="36" rx="5" fill="#141416" stroke="#2a2a2f" stroke-width="1"/>
  <rect x="510" y="200" width="88" height="36" rx="5" fill="#141416" stroke="#2a2a2f" stroke-width="1"/>
  <rect x="600" y="200" width="88" height="36" rx="5" fill="#141416" stroke="#2a2a2f" stroke-width="1"/>
  <rect x="690" y="200" width="88" height="36" rx="5" fill="#141416" stroke="#2a2a2f" stroke-width="1"/>
  <rect x="780" y="200" width="88" height="36" rx="5" fill="#141416" stroke="#2a2a2f" stroke-width="1"/>
  <text x="234" y="262" font-family="monospace" font-size="10" fill="#5a5855" text-anchor="end">10:00</text>
  <rect x="240" y="238" width="88" height="36" rx="5" fill="#141416" stroke="#2a2a2f" stroke-width="1"/>
  <rect x="330" y="238" width="88" height="36" rx="5" fill="#141416" stroke="#2a2a2f" stroke-width="1"/>
  <rect x="420" y="238" width="88" height="36" rx="5" fill="#141416" stroke="#2a2a2f" stroke-width="1"/>
  <rect x="510" y="238" width="88" height="36" rx="5" fill="#141416" stroke="#2a2a2f" stroke-width="1"/>
  <rect x="600" y="238" width="88" height="36" rx="5" fill="#141416" stroke="#2a2a2f" stroke-width="1"/>
  <rect x="690" y="238" width="88" height="36" rx="5" fill="#141416" stroke="#2a2a2f" stroke-width="1"/>
  <rect x="780" y="238" width="88" height="36" rx="5" fill="#141416" stroke="#2a2a2f" stroke-width="1"/>
  <text x="234" y="300" font-family="monospace" font-size="10" fill="#5a5855" text-anchor="end">11:00</text>
  <rect x="240" y="276" width="88" height="36" rx="5" fill="#141416" stroke="#2a2a2f" stroke-width="1"/>
  <rect x="330" y="276" width="88" height="36" rx="5" fill="#141416" stroke="#2a2a2f" stroke-width="1"/>
  <rect x="420" y="276" width="88" height="36" rx="5" fill="#141416" stroke="#2a2a2f" stroke-width="1"/>
  <rect x="510" y="276" width="88" height="36" rx="5" fill="#141416" stroke="#2a2a2f" stroke-width="1"/>
  <rect x="600" y="276" width="88" height="36" rx="5" fill="#141416" stroke="#2a2a2f" stroke-width="1"/>
  <rect x="690" y="276" width="88" height="36" rx="5" fill="#141416" stroke="#2a2a2f" stroke-width="1"/>
  <rect x="780" y="276" width="88" height="36" rx="5" fill="#141416" stroke="#2a2a2f" stroke-width="1"/>
  <text x="234" y="338" font-family="monospace" font-size="10" fill="#5a5855" text-anchor="end">12:00</text>
  <rect x="240" y="314" width="88" height="36" rx="5" fill="#141416" stroke="#2a2a2f" stroke-width="1"/>
  <rect x="330" y="314" width="88" height="36" rx="5" fill="#141416" stroke="#2a2a2f" stroke-width="1"/>
  <rect x="420" y="314" width="88" height="36" rx="5" fill="#141416" stroke="#2a2a2f" stroke-width="1"/>
  <rect x="510" y="314" width="88" height="36" rx="5" fill="#141416" stroke="#2a2a2f" stroke-width="1"/>
  <rect x="600" y="314" width="88" height="36" rx="5" fill="#141416" stroke="#2a2a2f" stroke-width="1"/>
  <rect x="690" y="314" width="88" height="36" rx="5" fill="#141416" stroke="#2a2a2f" stroke-width="1"/>
  <rect x="780" y="314" width="88" height="36" rx="5" fill="#141416" stroke="#2a2a2f" stroke-width="1"/>
  <text x="234" y="376" font-family="monospace" font-size="10" fill="#5a5855" text-anchor="end">13:00</text>
  <rect x="240" y="352" width="88" height="36" rx="5" fill="#141416" stroke="#2a2a2f" stroke-width="1"/>
  <rect x="330" y="352" width="88" height="36" rx="5" fill="#141416" stroke="#2a2a2f" stroke-width="1"/>
  <rect x="420" y="352" width="88" height="36" rx="5" fill="#141416" stroke="#2a2a2f" stroke-width="1"/>
  <rect x="510" y="352" width="88" height="36" rx="5" fill="#141416" stroke="#2a2a2f" stroke-width="1"/>
  <rect x="600" y="352" width="88" height="36" rx="5" fill="#141416" stroke="#2a2a2f" stroke-width="1"/>
  <rect x="690" y="352" width="88" height="36" rx="5" fill="#141416" stroke="#2a2a2f" stroke-width="1"/>
  <rect x="780" y="352" width="88" height="36" rx="5" fill="#141416" stroke="#2a2a2f" stroke-width="1"/>
  <rect x="240" y="162" width="88" height="74" rx="5" fill="#7badc422" stroke="#7badc455" stroke-width="1"/>
  <text x="246" y="178" font-family="monospace" font-size="9" fill="#7badc4">Math Study</text>
  <rect x="240" y="276" width="88" height="36" rx="5" fill="#e8d5a322" stroke="#e8d5a355" stroke-width="1"/>
  <text x="246" y="292" font-family="monospace" font-size="9" fill="#e8d5a3">Project Work</text>
  <rect x="420" y="200" width="88" height="36" rx="5" fill="#7bc4a022" stroke="#7bc4a055" stroke-width="1"/>
  <text x="426" y="216" font-family="monospace" font-size="9" fill="#7bc4a0">Reading</text>
  <rect x="600" y="162" width="88" height="36" rx="5" fill="#b07bc422" stroke="#b07bc455" stroke-width="1"/>
  <text x="606" y="178" font-family="monospace" font-size="9" fill="#b07bc4">Weekly Review</text>
  <rect x="330" y="238" width="88" height="74" rx="5" fill="#d97b7b22" stroke="#d97b7b55" stroke-width="1"/>
  <text x="336" y="254" font-family="monospace" font-size="9" fill="#d97b7b">Physics Lab</text>

</svg>